<?xml version="1.0" encoding="UTF-8" standalone="no"?>
<!-- Created with Inkscape (http://www.inkscape.org/) -->

<svg
   xmlns:dc="http://purl.org/dc/elements/1.1/"
   xmlns:cc="http://creativecommons.org/ns#"
   xmlns:rdf="http://www.w3.org/1999/02/22-rdf-syntax-ns#"
   xmlns:svg="http://www.w3.org/2000/svg"
   xmlns="http://www.w3.org/2000/svg"
   xmlns:sodipodi="http://sodipodi.sourceforge.net/DTD/sodipodi-0.dtd"
   xmlns:inkscape="http://www.inkscape.org/namespaces/inkscape"
   width="128px"
   height="128px"
   viewBox="0 0 128 128"
   version="1.1"
   id="SVGRoot"
   inkscape:version="0.92.2 (5c3e80d, 2017-08-06)"
   sodipodi:docname="icon_settings.svg">
  <sodipodi:namedview
     id="base"
     pagecolor="#ffffff"
     bordercolor="#666666"
     borderopacity="1.0"
     inkscape:pageopacity="0.0"
     inkscape:pageshadow="2"
     inkscape:zoom="4"
     inkscape:cx="68.7251"
     inkscape:cy="64.441667"
     inkscape:document-units="px"
     inkscape:current-layer="layer1"
     showgrid="false"
     inkscape:window-width="1920"
     inkscape:window-height="1138"
     inkscape:window-x="-8"
     inkscape:window-y="-8"
     inkscape:window-maximized="1"
     inkscape:grid-bbox="true" />
  <defs
     id="defs4485" />
  <metadata
     id="metadata4488">
    <rdf:RDF>
      <cc:Work
         rdf:about="">
        <dc:format>image/svg+xml</dc:format>
        <dc:type
           rdf:resource="http://purl.org/dc/dcmitype/StillImage" />
        <dc:title></dc:title>
      </cc:Work>
    </rdf:RDF>
  </metadata>
  <g
     id="layer1"
     inkscape:groupmode="layer"
     inkscape:label="Layer 1">
    <path
       style="opacity:1;fill:#666666;fill-opacity:0.9342728;stroke:#000000;stroke-width:0;stroke-linecap:round;stroke-linejoin:miter;stroke-miterlimit:4;stroke-dasharray:none;stroke-dashoffset:0;stroke-opacity:0.98122068"
       d="m 58.191475,7.2499999 c -2.579022,0 -4.654411,2.0753894 -4.654411,4.6544111 v 8.453155 a 44.825876,44.936284 0 0 0 -12.976456,5.40657 l -5.99829,-5.998291 c -1.823644,-1.823643 -4.759467,-1.823643 -6.583111,0 l -8.213362,8.213362 c -1.823643,1.823644 -1.823643,4.759467 0,6.583111 l 6.020717,6.020716 a 44.825876,44.936284 0 0 0 -5.327213,12.95403 h -8.553213 c -2.5790216,0 -4.6561361,2.075389 -4.6561361,4.654411 v 11.61705 c 0,2.579022 2.0771145,4.654411 4.6561361,4.654411 h 8.553213 a 44.825876,44.936284 0 0 0 5.339289,12.941954 l -6.032793,6.032792 c -1.823643,1.823644 -1.823643,4.759471 0,6.583108 l 8.213362,8.21337 c 1.823644,1.82364 4.759467,1.82364 6.583111,0 l 5.982763,-5.98277 a 44.825876,44.936284 0 0 0 12.991983,5.39105 v 8.45143 c 0,2.57902 2.075389,4.65613 4.654411,4.65613 h 11.61705 c 2.579022,0 4.654411,-2.07711 4.654411,-4.65613 v -8.45143 a 44.825876,44.936284 0 0 0 12.976456,-5.40658 l 5.99829,5.9983 c 1.823644,1.82364 4.759471,1.82364 6.583108,0 l 8.21337,-8.21337 c 1.82364,-1.823637 1.82364,-4.759464 0,-6.583108 l -6.02072,-6.020716 a 44.825876,44.936284 0 0 0 5.32721,-12.95403 h 8.55494 c 2.57902,0 4.65441,-2.075389 4.65441,-4.654411 v -11.61705 c 0,-2.579022 -2.07539,-4.654411 -4.65441,-4.654411 h -8.55494 A 44.825876,44.936284 0 0 0 102.20136,40.59511 l 6.0328,-6.032792 c 1.82364,-1.823644 1.82364,-4.759467 0,-6.583111 l -8.21337,-8.213362 c -1.823637,-1.823643 -4.759464,-1.823643 -6.583108,0 l -5.982763,5.982764 A 44.825876,44.936284 0 0 0 74.462936,20.357566 v -8.453155 c 0,-2.5790217 -2.075389,-4.6544111 -4.654411,-4.6544111 z M 64,37.501945 A 26.498055,26.498055 0 0 1 90.498055,64 26.498055,26.498055 0 0 1 64,90.498055 26.498055,26.498055 0 0 1 37.501945,64 26.498055,26.498055 0 0 1 64,37.501945 Z m 0,7.839008 A 18.659047,18.659047 0 0 0 45.340953,64 18.659047,18.659047 0 0 0 64,82.659047 18.659047,18.659047 0 0 0 82.659047,64 18.659047,18.659047 0 0 0 64,45.340953 Z"
       id="rect5341"
       inkscape:connector-curvature="0"
       inkscape:export-filename="C:\data\_projects\_working_copy\PrecisionAg_Plugin\documentation\Pictures\manual\icons\icon_settings.png"
       inkscape:export-xdpi="96"
       inkscape:export-ydpi="96" />
  </g>
</svg>
