<?xml version="1.0" encoding="UTF-8" standalone="no"?>
<!-- Created with Inkscape (http://www.inkscape.org/) -->

<svg
   xmlns:osb="http://www.openswatchbook.org/uri/2009/osb"
   xmlns:dc="http://purl.org/dc/elements/1.1/"
   xmlns:cc="http://creativecommons.org/ns#"
   xmlns:rdf="http://www.w3.org/1999/02/22-rdf-syntax-ns#"
   xmlns:svg="http://www.w3.org/2000/svg"
   xmlns="http://www.w3.org/2000/svg"
   xmlns:sodipodi="http://sodipodi.sourceforge.net/DTD/sodipodi-0.dtd"
   xmlns:inkscape="http://www.inkscape.org/namespaces/inkscape"
   width="128"
   height="128"
   viewBox="0 0 128 128"
   version="1.1"
   id="SVGRoot"
   sodipodi:docname="icon_rasterSymbology.svg"
   inkscape:version="0.92.3 (2405546, 2018-03-11)">
  <sodipodi:namedview
     id="base"
     pagecolor="#ffffff"
     bordercolor="#666666"
     borderopacity="1.0"
     inkscape:pageopacity="0.0"
     inkscape:pageshadow="2"
     inkscape:zoom="3.7851563"
     inkscape:cx="-11.282967"
     inkscape:cy="79.46655"
     inkscape:document-units="px"
     inkscape:current-layer="SVGRoot"
     showgrid="true"
     inkscape:window-width="1920"
     inkscape:window-height="1137"
     inkscape:window-x="-8"
     inkscape:window-y="-8"
     inkscape:window-maximized="1"
     inkscape:grid-bbox="true"
     inkscape:lockguides="false"
     inkscape:snap-others="false"
     inkscape:snap-grids="false"
     inkscape:snap-to-guides="false"
     inkscape:object-nodes="false"
     inkscape:snap-nodes="false"
     showborder="true"
     inkscape:pagecheckerboard="false">
    <inkscape:grid
       type="xygrid"
       id="grid5044"
       enabled="true" />
  </sodipodi:namedview>
  <defs
     id="defs4485">
    <linearGradient
       id="linearGradient6595"
       osb:paint="solid">
      <stop
         style="stop-color:#00dd00;stop-opacity:1;"
         offset="0"
         id="stop6593" />
    </linearGradient>
  </defs>
  <metadata
     id="metadata4488">
    <rdf:RDF>
      <cc:Work
         rdf:about="">
        <dc:format>image/svg+xml</dc:format>
        <dc:type
           rdf:resource="http://purl.org/dc/dcmitype/StillImage" />
        <dc:title></dc:title>
      </cc:Work>
    </rdf:RDF>
  </metadata>
  <g
     id="layer1"
     inkscape:label="Layer 1"
     inkscape:groupmode="layer"
     transform="translate(0,80)" />
  <g
     inkscape:groupmode="layer"
     id="layer2"
     inkscape:label="Layer 2"
     transform="translate(0,80)" />
  <path
     sodipodi:nodetypes="ccccccc"
     style="fill:#0087ff;fill-opacity:1;stroke:none;stroke-width:5.7184252;stroke-miterlimit:4;stroke-dasharray:none;stroke-opacity:1"
     d="M 4.1254379,55.678237 34.721178,124.03538 94.594137,92.679521 85.089082,71.468625 123.9832,51.518441 103.22402,4.1990171 Z"
     id="rect5048"
     inkscape:connector-curvature="0" />
  <path
     style="fill:#00ff4b;fill-opacity:1;stroke:none;stroke-width:1.85876656px;stroke-linecap:butt;stroke-linejoin:miter;stroke-opacity:1"
     d="m 50.378315,49.654041 c 0,0 -22.296114,-17.651155 2.623071,-4.412791 24.919182,13.238368 24.919182,11.583572 24.919182,13.238368 0,1.654794 -4.371787,22.89134 -6.1205,23.994537 -1.748716,1.103198 -15.957022,3.86119 -21.421753,1.930594 C 44.913581,82.474155 38.574491,83.301555 33.984115,78.888765 29.393738,74.475976 6.8790386,73.64858 23.710414,65.098801 40.541794,56.549022 48.19242,54.066829 48.411009,50.757235 c 0.21859,-3.309588 0.21859,-4.412787 0.21859,-4.412787"
     id="path951"
     inkscape:connector-curvature="0" />
  <path
     style="fill:#ff2300;fill-opacity:1;stroke:none;stroke-width:1.497401px;stroke-linecap:butt;stroke-linejoin:miter;stroke-opacity:1"
     d="m 37.506825,87.094725 c 0.156534,0.308259 0.313068,0.616517 0.469601,0.924775 0.03131,0.06166 0.08191,0.117485 0.09392,0.184955 0.0334,0.188435 0.07341,1.174516 0.05902,1.36592 -0.02524,0.335439 -0.125685,0.657756 -0.128837,0.996013 -0.002,0.213942 0.104352,0.425611 0.113597,0.640259 0.01057,0.24472 -0.04739,0.482244 -0.05458,0.725659 -0.0045,0.150988 0.01307,0.303562 0.01966,0.45531 -0.01824,0.24191 -0.04739,0.482244 -0.05458,0.725661 -0.0089,0.301917 0.07775,0.613659 0.03934,0.910614 -0.02426,0.187789 -0.134232,0.350954 -0.148501,0.540703 -0.02257,0.300024 0.04216,0.608067 0.03934,0.910614 -0.0023,0.243944 -0.06515,0.480938 -0.05458,0.72566 0.0472,1.09253 0.371063,0.318461 0.07868,1.821228 -0.04583,0.235567 -0.253573,0.396345 -0.316672,0.626101 -0.03913,0.142495 0.03888,0.306829 0.01967,0.455306 -0.02428,0.187799 -0.134226,0.350954 -0.1485,0.540704 -0.005,0.06708 0.09098,0.117085 0.09392,0.184955 0.04093,0.947438 -0.08881,-0.20361 -0.242421,0.355748 -0.0175,0.0637 0.09098,0.11709 0.09392,0.18496 0.04093,0.94744 -0.08881,-0.20361 -0.242419,0.35574 -0.03913,0.1425 0.07794,0.32168 0.01967,0.45531 -0.08242,0.18898 -0.323889,0.25458 -0.410593,0.44115 -0.707167,2.57486 0.2324,-0.29267 -0.950014,1.8783 -0.131282,0.24105 -0.133238,0.54702 -0.22275,0.81106 -0.164784,0.48607 -0.35029,0.96275 -0.539423,1.43715 -0.130307,0.29882 -0.260614,0.59764 -0.390921,0.89646 -0.112114,0.0569 -0.27779,0.055 -0.336342,0.17079 -0.06546,0.12943 0.0588,0.31282 0.01967,0.45531 -0.0175,0.0637 -0.132033,0.0324 -0.168171,0.0854 -0.119276,0.17503 -0.177726,0.90637 -0.297,1.0814 -0.03614,0.053 -0.150669,0.0217 -0.16817,0.0854 -0.0175,0.0637 0.111424,0.12123 0.09392,0.18496 -0.035,0.12743 -0.301338,0.0434 -0.336343,0.17079 -0.01749,0.0637 0.06261,0.1233 0.09392,0.18495 0.156534,0.30826 0.313068,0.61652 0.469601,0.92478 0.406988,0.80147 0.813975,1.60294 1.220962,2.40442 0.125227,0.2466 0.250454,0.49321 0.375681,0.73982 0.06261,0.12329 0.104455,0.26016 0.18784,0.36991 0.150024,0.391 0.569169,0.46907 0.805943,0.75398 0.08793,0.10581 0.125227,0.2466 0.187841,0.36991 0.09392,0.18495 0.18784,0.36991 0.28176,0.55486 0.03131,0.0617 0.06261,0.1233 0.09392,0.18496 0.03131,0.0617 0.04085,0.14254 0.09392,0.18495 0.07506,0.06 0.174723,0.0664 0.26209,0.0996 0.06261,0.1233 0.09298,0.27094 0.18784,0.36991 0.06707,0.07 0.187036,0.0396 0.26209,0.0996 0.106142,0.0848 0.06429,0.32298 0.187841,0.36991 0.02552,0.01 0.5686,-0.31464 0.672682,-0.34159 0.193245,-0.05 0.405192,-0.0212 0.598432,-0.0712 0.122213,-0.0316 0.214126,-0.13915 0.336342,-0.1708 0.193243,-0.05 0.4073,-0.0145 0.598431,-0.0712 0.302202,-0.0897 0.560568,-0.28466 0.840853,-0.42699 0.05605,-0.0285 0.10509,-0.0779 0.16817,-0.0854 0.141065,-0.0168 0.28921,0.031 0.430261,0.0142 0.115555,-0.0137 0.526949,-0.26759 0.672683,-0.34159 0.560568,-0.28466 1.121136,-0.56932 1.681705,-0.85397 0.07608,-0.0386 0.976721,-0.46498 1.009023,-0.51238 0.05111,-0.075 0.01304,-0.20459 0.07425,-0.27036 0.06265,-0.0673 0.74699,-0.37932 0.840857,-0.42698 0.56056,-0.28466 1.121132,-0.56931 1.681705,-0.85397 0.224219,-0.11386 0.448451,-0.22773 0.672683,-0.34159 0.112159,-0.057 0.238674,-0.0908 0.336341,-0.17079 0.154398,-0.12651 0.249102,-0.32446 0.410585,-0.44115 0.329364,-0.23798 0.803418,-0.40797 1.177201,-0.59778 0.448451,-0.22772 0.896901,-0.45545 1.345355,-0.68317 0.112159,-0.057 0.224232,-0.11387 0.336343,-0.1708 0.05602,-0.0284 0.150677,-0.0217 0.168176,-0.0854 0.01746,-0.0637 -0.111381,-0.12125 -0.09392,-0.18495 0.02442,-0.0891 0.573638,-0.23518 0.672683,-0.34159 0.06123,-0.0658 0.02314,-0.19535 0.07424,-0.27035 0.03616,-0.053 0.132012,-0.0324 0.168177,-0.0854 0.05111,-0.075 0.02315,-0.19535 0.07424,-0.27035 0.03617,-0.053 0.132021,-0.0323 0.168176,-0.0854 0.05111,-0.075 0.02315,-0.19535 0.07424,-0.27035 0.03617,-0.053 0.112159,-0.057 0.168178,-0.0854 0.05602,-0.0285 0.112158,-0.057 0.168164,-0.0854 0.168177,-0.0854 0.336341,-0.1708 0.504518,-0.2562 0.112159,-0.057 0.238684,-0.0908 0.336338,-0.17079 0.17353,-0.14218 0.532383,-0.55838 0.653007,-0.79689 0.04142,-0.0819 0.0231,-0.19533 0.07426,-0.27035 0.07686,-0.11286 0.816779,-0.33935 0.840847,-0.42699 0.01742,-0.0637 -0.111344,-0.12127 -0.09392,-0.18495 0.03507,-0.12748 0.249793,-0.0778 0.336341,-0.17079 0.09677,-0.104 0.152041,-0.24546 0.242419,-0.35575 0.255661,-0.31198 0.592638,-0.5469 0.821188,-0.8823 0.36963,-0.54243 -0.382032,0.01 0.316688,-0.62611 0.09349,-0.0851 0.264049,-0.0647 0.33634,-0.17079 0.03611,-0.053 -0.09097,-0.11709 -0.09392,-0.18496 -0.04095,-0.94743 0.0889,0.20357 0.24242,-0.35574 0.01745,-0.0637 -0.130029,-0.13194 -0.09392,-0.18496 0.07237,-0.1061 0.249768,-0.0778 0.33634,-0.17079 0.06117,-0.0657 0.0231,-0.19533 0.07424,-0.27035 0.03611,-0.053 0.13202,-0.0324 0.168179,-0.0854 0.05109,-0.075 0.0231,-0.19533 0.07424,-0.27035 0.07237,-0.1061 0.264067,-0.0647 0.336349,-0.1708 0.05109,-0.075 0.02309,-0.19532 0.07425,-0.27035 0.0361,-0.053 0.112176,-0.057 0.16817,-0.0854 0.112167,-0.057 0.249777,-0.0778 0.33634,-0.1708 0.06116,-0.0657 0.0231,-0.19533 0.07426,-0.27035 0.07225,-0.10605 0.301328,-0.0434 0.33634,-0.1708 0.01745,-0.0637 -0.130029,-0.13193 -0.09392,-0.18495 0.0704,-0.1033 0.937562,-0.40752 1.00902,-0.51238 0.05108,-0.075 0.0231,-0.19534 0.07424,-0.27035 0.0369,-0.0541 0.556563,-0.282622 0.672689,-0.341591 0.448453,-0.227724 0.896906,-0.455449 1.34536,-0.683173 0.0617,-0.03133 0.669661,-0.330746 0.67268,-0.341587 0.01745,-0.0637 -0.111372,-0.121258 -0.09392,-0.184955 0.01745,-0.06369 0.150673,-0.02168 0.168179,-0.0854 0.03508,-0.12748 -0.22292,-0.242425 -0.18784,-0.36991 0.03904,-0.142447 0.231133,-0.205724 0.242412,-0.355743 0.0074,-0.09873 -0.463708,-0.791033 -0.469601,-0.924775 -0.0041,-0.09601 0.07839,-0.174363 0.07425,-0.270352 -0.0029,-0.06786 -0.111371,-0.121259 -0.09392,-0.184956 0.01744,-0.06371 0.150673,-0.02168 0.16817,-0.0854 0.01744,-0.06371 -0.09097,-0.11709 -0.09392,-0.184956 -0.0041,-0.09601 0.0784,-0.174366 0.07426,-0.270356 -0.0079,-0.182101 -0.273852,-0.372761 -0.28176,-0.554865 -0.0041,-0.09601 0.0784,-0.174367 0.07424,-0.270347 -0.0054,-0.123473 -0.395989,-0.665848 -0.375681,-0.739821 0.01745,-0.06369 0.150682,-0.02166 0.168179,-0.0854 0.0034,-0.01102 -0.341189,-0.671897 -0.37568,-0.739818 -0.219147,-0.431563 -0.438294,-0.863124 -0.657441,-1.294686 -0.09392,-0.184955 -0.156764,-0.39021 -0.281761,-0.554866 -0.131762,-0.173561 -0.318096,-0.295943 -0.449939,-0.469464 -0.08342,-0.109718 -0.125227,-0.246607 -0.18784,-0.36991 -0.219148,-0.431562 -0.438294,-0.863123 -0.657442,-1.294686 -0.125227,-0.246607 -0.250453,-0.493213 -0.37568,-0.73982 -0.125227,-0.246606 -0.226521,-0.507262 -0.375681,-0.73982 -0.190221,-0.296413 -0.452899,-0.539454 -0.637761,-0.839382 -1.237336,-2.007567 0.203195,-0.22335 -1.389142,-2.319016 -0.343737,-0.452519 -0.762236,-0.842066 -1.0877,-1.308847 -0.197333,-0.28303 -0.285936,-0.632218 -0.469601,-0.924775 -0.996785,-1.587988 -0.262269,-0.147218 -1.181612,-1.493806 -0.194549,-0.285058 -0.313068,-0.616518 -0.469601,-0.924776 -0.06261,-0.123297 -0.0999,-0.264097 -0.187841,-0.36991 -0.09841,-0.118262 -0.2577,-0.166207 -0.356019,-0.284509 -0.08794,-0.105808 -0.09295,-0.270955 -0.18784,-0.369911 -0.06706,-0.06999 -0.187031,-0.03958 -0.262081,-0.09956 -0.167904,-0.134081 -0.292235,-0.321853 -0.449939,-0.469463 -0.111634,-0.104327 -0.237394,-0.189649 -0.356002,-0.284518 -0.118604,-0.09486 -0.249966,-0.173857 -0.356019,-0.284509 -0.04735,-0.04952 -0.03219,-0.161463 -0.09392,-0.184956 -0.138036,-0.05251 -0.29212,0.03831 -0.43026,-0.01416 -0.06172,-0.02349 -0.04086,-0.142535 -0.09392,-0.184955 -0.107856,-0.08628 -0.954123,-0.346452 -1.048361,-0.398234 -0.13117,-0.07212 -0.224789,-0.212423 -0.35601,-0.284514 -0.165921,-0.09122 -0.349453,-0.132743 -0.52418,-0.199116 -0.2621,-0.09956 -0.52418,-0.199115 -0.78628,-0.298671 -0.137892,-0.05245 -0.671367,-0.294896 -0.786261,-0.29868 -0.06411,-0.0021 -0.106402,0.108863 -0.168179,0.0854 -0.285183,-0.108326 0.175715,-0.393153 -0.356001,-0.284517 -0.185934,0.03798 -0.33634,0.170793 -0.504519,0.256194 -0.05599,0.02843 -0.104021,0.08751 -0.168161,0.08539 -0.09068,-0.003 -0.171343,-0.09659 -0.262099,-0.09955 -0.12837,-0.0042 -0.212803,0.217726 -0.33634,0.170793 -0.06172,-0.02349 -0.0322,-0.161463 -0.09392,-0.184955 -0.06173,-0.0235 -0.10402,0.08751 -0.16817,0.0854 -0.09068,-0.003 -0.17287,-0.110181 -0.26209,-0.09956 -0.189236,0.02253 -0.315282,0.233663 -0.50451,0.25619 -0.143475,-0.0047 -0.286845,-0.0094 -0.43026,-0.01416 -0.03131,-0.06166 -0.02981,-0.182829 -0.09392,-0.184955 -0.128369,-0.0042 -0.224235,0.113866 -0.33634,0.170793 -0.05599,0.02843 -0.106392,0.108881 -0.168178,0.0854 -0.06173,-0.02349 -0.0322,-0.161463 -0.09392,-0.184955 -0.03098,-0.01176 -0.868748,0.483713 -1.009029,0.512385 -0.08759,0.01789 -0.171344,-0.09659 -0.262091,-0.09956 -0.06856,-0.0023 -0.690548,0.35066 -0.840858,0.426988 -0.33634,0.170793 -0.67268,0.341587 -1.009021,0.51238 -0.168165,0.08539 -0.354055,0.141534 -0.504506,0.256188 -0.201452,0.153507 -0.512623,0.550353 -0.653017,0.796898 -0.115223,0.202375 -0.170931,0.44825 -0.316663,0.626097 -0.765557,0.388749 -0.0545,-0.08199 -0.410598,0.441149 -0.07232,0.106083 -0.301337,0.04335 -0.336342,0.170794 -0.01746,0.0637 0.11138,0.121254 0.09392,0.184956 -0.03505,0.127462 -0.301337,0.04335 -0.33634,0.170794 -0.01746,0.0637 0.11138,0.121254 0.09392,0.184955 -0.03911,0.142482 -0.176948,0.226312 -0.242422,0.355749 -0.04139,0.08184 -0.03287,0.188501 -0.07424,0.270348 -0.06544,0.129414 -0.17696,0.22632 -0.24242,0.35575 -0.04342,0.08576 -0.215283,0.711685 -0.222757,0.81106 -0.01127,0.150009 0.05877,0.312834 0.01967,0.455304 -0.01746,0.0637 -0.150667,0.02168 -0.168177,0.0854 -0.01746,0.0637 0.11138,0.121253 0.09392,0.184955 -0.01746,0.0637 -0.150655,0.02167 -0.168164,0.08539 -0.01746,0.0637 0.09099,0.117081 0.09392,0.184955 0.0041,0.09603 -0.0784,0.174369 -0.07425,0.270352 0.0029,0.06787 0.11138,0.121253 0.09392,0.184955 -0.01746,0.0637 -0.150668,0.02168 -0.168177,0.0854 -0.01746,0.0637 0.11138,0.121253 0.09392,0.184955 -0.01746,0.0637 -0.150668,0.02168 -0.168164,0.08539 -0.01517,0.05528 0.277877,0.464593 0.281761,0.554866 0.0042,0.09596 -0.0784,0.174368 -0.07426,0.270355 0.0054,0.123482 0.395937,0.665878 0.37568,0.73982 -0.03719,0.135215 -0.467392,0.121012 -0.504505,0.256188 -0.01746,0.06371 0.130082,0.13191 0.09392,0.184955 -0.711106,1.043532 -0.08297,-1.788029 -0.46518,1.166808 z"
     id="path957"
     inkscape:connector-curvature="0" />
  <path
     style="fill:#ff2300;fill-opacity:1;stroke:none;stroke-width:1.28130233px;stroke-linecap:butt;stroke-linejoin:miter;stroke-opacity:1"
     d="m 76.824446,18.493292 c -0.231176,0.165223 -0.462354,0.330446 -0.693531,0.495668 -0.05779,0.110145 -0.082,0.243365 -0.173383,0.330446 -0.90117,0.858756 -0.1806,-0.156626 -0.866914,0.660889 -0.130179,0.15506 -0.199418,0.355256 -0.346765,0.495668 -0.147347,0.140412 -0.357431,0.206399 -0.520149,0.330446 -0.127647,0.09731 -0.215993,0.236981 -0.346766,0.330445 -0.103391,0.07388 -0.269226,0.0667 -0.346766,0.165223 -0.109651,0.139327 -0.07201,0.350758 -0.173383,0.495668 -0.03205,0.04583 -0.132516,-0.03894 -0.173383,0 -0.04087,0.03894 0.02584,0.11596 0,0.165222 -0.03656,0.06967 -0.136829,0.09556 -0.173383,0.165223 -0.02584,0.04926 0.04087,0.12628 0,0.165223 -0.04087,0.03895 -0.121687,-0.02463 -0.173381,0 -0.430553,0.205144 0.07472,0.141026 -0.173383,0.495667 -0.07168,0.102464 -0.255385,0.07814 -0.346766,0.165222 -0.195489,0.18629 -0.297778,0.85129 -0.346766,0.991337 -0.122606,0.35049 -0.397549,0.640845 -0.520149,0.991336 -0.03655,0.10449 0.02804,0.223585 0,0.330445 -0.03134,0.119475 -0.115584,0.220296 -0.173383,0.330444 -0.05779,0.220298 -0.134208,0.436904 -0.173382,0.660891 -0.01901,0.108656 0.03655,0.22595 0,0.330445 -0.02585,0.07388 -0.15356,0.08966 -0.173383,0.165223 -0.04205,0.16029 0.03401,0.333654 0,0.495668 -0.05069,0.241516 -0.296076,0.419374 -0.346766,0.660891 -0.03476,0.16558 0,0.776191 0,0.991335 0,0.05507 0.01129,0.11122 0,0.165222 -0.04673,0.222668 -0.08488,0.450056 -0.173383,0.660891 -0.324288,0.772564 -0.09907,-0.991352 -0.346766,0.660891 -0.0327,0.218082 0.05607,0.447171 0,0.660891 -0.06269,0.238945 -0.244952,0.434504 -0.346764,0.660889 -0.215145,0.478376 -0.31727,1.003678 -0.520149,1.487005 -0.048,0.114346 -0.106895,0.224845 -0.173383,0.330445 -0.10721,0.170275 -0.273599,0.309737 -0.346766,0.495668 -0.103469,0.262944 -0.101907,0.553673 -0.173383,0.826112 -0.04433,0.16896 -0.123171,0.328209 -0.173383,0.495668 -0.130928,0.43668 -0.179426,0.896544 -0.346766,1.321782 -0.09075,0.230616 -0.27576,0.424067 -0.346766,0.660889 -0.04763,0.158867 0.05483,0.338925 0,0.495668 -0.100804,0.288182 -0.592726,0.703155 -0.693531,0.991337 -0.05483,0.156743 0.07755,0.347887 0,0.495668 -0.109652,0.208991 -0.366973,0.313209 -0.520148,0.495668 -0.08074,0.09616 -0.106895,0.224845 -0.173383,0.330444 -0.10721,0.170276 -0.239555,0.325393 -0.346765,0.495668 -0.0665,0.105604 -0.101698,0.227978 -0.173383,0.330445 -0.04534,0.0648 -0.147538,0.09133 -0.173383,0.165223 -0.03656,0.104491 0.05169,0.231926 0,0.330445 -0.02585,0.04926 -0.132517,-0.03894 -0.173383,0 -0.0867,0.08262 0.08669,0.413057 0,0.495669 -0.04087,0.03895 -0.132517,-0.03894 -0.173383,0 -0.04086,0.03895 0,0.110144 0,0.165222 0,0.05507 0,0.110145 0,0.165223 0,0.440593 0,0.881187 0,1.32178 0,0.07441 0.02638,0.445385 0,0.495668 -0.03656,0.06967 -0.136831,0.09556 -0.173383,0.165223 -0.02584,0.04926 0.02584,0.11596 0,0.165223 -0.03656,0.06967 -0.136831,0.09556 -0.173383,0.165222 -0.0228,0.04344 0,0.574493 0,0.660891 0,0.08639 -0.0228,0.617446 0,0.66089 0.03656,0.06967 0.136831,0.09556 0.173383,0.165222 0.03438,0.0655 -0.03545,0.461891 0,0.495668 0.04086,0.03894 0.132516,-0.03894 0.173383,0 0.08669,0.08262 -0.0867,0.413058 0,0.495669 0.04087,0.03894 0.173383,-0.05507 0.173383,0 0,0.05507 -0.173383,-0.05507 -0.173383,0 0,0.343808 0.243147,0.06648 0.346766,0.165222 0.04087,0.03895 -0.04086,0.12628 0,0.165223 0.04087,0.03895 0.132516,-0.03894 0.173383,0 0.08173,0.07789 -0.08173,0.252559 0,0.330445 0.04087,0.03894 0.132516,-0.03895 0.173383,0 0.08173,0.07789 -0.05169,0.231926 0,0.330446 0.03655,0.06967 0.13683,0.09556 0.173382,0.165222 0.02585,0.04926 -0.02584,0.115961 0,0.165223 0.360788,0.687616 -0.01194,-0.17663 0.346766,0.165223 0.08173,0.07789 -0.08173,0.252557 0,0.330444 0.04087,0.03895 0.121688,-0.02463 0.173383,0 0.07311,0.03483 0.10028,0.130391 0.173383,0.165223 0.103391,0.04926 0.265031,-0.07789 0.346765,0 0.04087,0.03894 -0.04087,0.126279 0,0.165222 0.04087,0.03894 0.121687,-0.02463 0.173383,0 0.186381,0.08881 0.353444,0.211302 0.520148,0.330446 0.06539,0.04673 0.10028,0.13039 0.173383,0.165222 0.103391,0.04926 0.243381,-0.04926 0.346766,0 0.394644,0.376071 -0.03591,0.04366 0.346766,0.165223 0.628562,0.199661 0.123394,0.07839 0.520149,0.330445 0.107525,0.06831 0.23595,0.101865 0.346766,0.165223 0.178684,0.102164 0.326671,0.256697 0.520147,0.330445 0.09966,0.03799 0.599396,-0.04485 0.693532,0 0.07311,0.03484 0.100279,0.130391 0.173383,0.165223 0.05169,0.02463 0.121687,-0.02463 0.173383,0 0.07311,0.03484 0.09584,0.140592 0.173382,0.165223 0.109652,0.03483 0.23711,-0.03484 0.346766,0 0.07755,0.02463 0.115585,0.110144 0.173383,0.165223 0.115584,0.05507 0.221393,0.135353 0.346766,0.165222 0.236171,0.05626 0.83054,-0.06663 1.040296,0 0.07755,0.02463 0.10028,0.13039 0.173383,0.165223 0.103391,0.04926 0.243381,-0.04926 0.346766,0 0.07311,0.03483 0.10028,0.130389 0.173383,0.165223 0.09406,0.04481 0.64609,-0.0452 0.693532,0 0.04087,0.03895 -0.04086,0.126278 0,0.165221 0.08173,0.07789 0.265032,-0.07789 0.346766,0 0.358735,0.341853 -0.548196,-0.01336 0.173382,0.330445 0.184963,0.08813 0.161803,-0.08813 0.346766,0 0.07311,0.03484 0.10028,0.130391 0.173383,0.165223 0.05169,0.02463 0.118551,-0.01741 0.173383,0 0.122607,0.03894 0.224165,0.12628 0.346765,0.165223 0.12191,0.03872 0.819389,-0.04529 0.866914,0 0.231178,0.220297 -0.288971,0.165223 0.173383,0.165223 0.06367,0 0.686554,-0.0066 0.693532,0 0.04087,0.03895 -0.04086,0.126279 0,0.165222 0.04087,0.03895 0.121688,-0.02463 0.173383,0 0.170613,0.08129 0.522917,0.579599 0.693532,0.660891 0.163466,0.07789 0.36808,0.06862 0.520147,0.165223 0.04809,0.03054 0,0.110144 0,0.165222 0.05779,0.05507 0.10028,0.130391 0.173383,0.165223 0.10339,0.04926 0.265033,-0.07789 0.346766,0 0.08173,0.07789 -0.08173,0.252558 0,0.330445 0.04086,0.03894 0.121687,-0.02463 0.173383,0 0.07311,0.03484 0.100279,0.13039 0.173383,0.165223 0.05169,0.02463 0.121687,-0.02463 0.173383,0 0.07311,0.03484 0.100279,0.13039 0.173382,0.165222 0.05169,0.02463 0.132517,-0.03894 0.173383,0 0.04744,0.0452 -0.04703,0.571259 0,0.66089 0.03656,0.06967 0.136831,0.09556 0.173383,0.165223 0.06936,0.132178 -0.06936,0.36349 0,0.495668 0.07311,0.139328 0.295073,0.182666 0.346766,0.330446 0.06141,0.175568 -0.06141,0.485322 0,0.66089 -0.104506,0.299043 0.28087,0.307285 0.346766,0.495668 0.03655,0.104491 -0.02804,0.223585 0,0.330445 0.03134,0.119475 0.132516,0.213615 0.173383,0.330445 0.01827,0.05224 -0.01402,0.111795 0,0.165223 0.04432,0.16896 0.137539,0.32489 0.173383,0.495668 0.03401,0.162014 -0.05483,0.338924 0,0.495668 0.495902,1.417689 -0.155293,-1.053128 0.173383,0.826113 0.03004,0.17179 0.143336,0.323878 0.173381,0.495667 0.02851,0.162975 -0.02851,0.332694 0,0.495668 0.03005,0.171791 0.129065,0.326708 0.173383,0.495668 0.01402,0.05343 0,0.110145 0,0.165223 0,0.110144 0,0.220297 0,0.330445 0,0.220298 0,0.440594 0,0.660891 0,0.881187 0,1.762374 0,2.643562 0,0.04008 -0.0055,0.490353 0,0.495668 0.01672,0.01594 0.276612,-0.01337 0.346766,0 0.233665,0.04453 0.464408,0.10284 0.693532,0.165223 0.17573,0.04784 0.340937,0.131066 0.520149,0.165222 0.113339,0.0216 0.237109,-0.03483 0.346765,0 0.07753,0.02463 0.10028,0.13039 0.173383,0.165222 0.138707,0.06609 0.381443,-0.06609 0.520149,0 0.07311,0.03483 0.10028,0.130391 0.173382,0.165223 0.05271,0.02511 0.573807,0 0.693531,0 0.520149,0 1.040298,0 1.560447,0 0.577942,0 1.155885,0 1.733828,0 0.231177,0 0.464678,0.03116 0.693531,0 0.180925,-0.02463 0.340936,-0.131067 0.520149,-0.165223 0.11334,-0.0216 0.243379,0.04926 0.346766,0 0.05169,-0.02463 -0.04086,-0.126278 0,-0.165222 0.03545,-0.03378 0.451403,0.03276 0.520149,0 0.18638,-0.08881 0.333767,-0.24164 0.520147,-0.330445 0.163468,-0.07789 0.368082,-0.06862 0.520149,-0.165223 0.204019,-0.129611 0.321847,-0.358236 0.520149,-0.495668 0.440947,-0.305596 0.950879,-0.514372 1.387063,-0.826113 0.261547,-0.186928 0.447488,-0.455736 0.69353,-0.660891 1.779385,-1.483682 -0.26573,0.418447 1.213681,-0.991335 0.115584,-0.110144 0.231178,-0.220297 0.346766,-0.330445 0.05779,-0.05507 0.13683,-0.09556 0.173383,-0.165223 0.02584,-0.04926 -0.04087,-0.126279 0,-0.165223 0.08173,-0.07789 0.243379,0.04926 0.346766,0 0.146208,-0.06967 0.219119,-0.233134 0.346765,-0.330445 0.537647,-0.409874 0.685714,-0.490701 1.21368,-0.826114 0.173382,-0.110144 0.333767,-0.24164 0.520148,-0.330445 0.163467,-0.07789 0.37394,-0.06073 0.520149,-0.165223 0.103391,-0.07388 0.082,-0.243364 0.173383,-0.330444 0.05779,0 0.115584,0 0.173383,0 0.05779,0 0.132514,0.03894 0.173384,0 0.0409,-0.03894 -0.0409,-0.126279 0,-0.165222 0.0409,-0.03894 0.11558,0 0.17338,0 0.23118,0 0.46236,0 0.69353,0 0.0578,0 0.11672,0.01076 0.17339,0 0.39037,-0.0744 0.83596,-0.19547 1.21368,-0.330446 0.29141,-0.10414 0.56765,-0.248968 0.86691,-0.330445 0.51234,-0.139493 1.04926,-0.187173 1.56045,-0.330446 2.63172,-0.737605 0.1911,-0.225927 2.60074,-0.991336 0.62514,-0.198572 1.2705,-0.33387 1.90721,-0.495667 0.23025,-0.05851 0.4804,-0.06368 0.69353,-0.165222 0.14621,-0.06967 0.21075,-0.244039 0.34677,-0.330446 0.0839,-0.05327 0.72332,0.0456 0.86691,0 0.2452,-0.07789 0.45356,-0.238973 0.69354,-0.330445 1.15363,-0.439737 -0.12877,0.172781 1.04029,-0.495668 0.11078,-0.06337 0.25539,-0.07814 0.34677,-0.165223 0.0914,-0.08708 0.07,-0.256555 0.17338,-0.330445 0.1462,-0.104491 0.37393,-0.06073 0.52015,-0.165223 0.10343,-0.07388 0.10172,-0.227978 0.17338,-0.330445 0.0453,-0.0648 0.13683,-0.09556 0.17339,-0.165223 0.0259,-0.04926 -0.0408,-0.126279 0,-0.165223 0.23117,-0.220296 0.16636,0.350491 0.34676,-0.165222 0.0365,-0.104491 -0.0517,-0.231925 0,-0.330445 0.0259,-0.04926 0.13252,0.03894 0.17338,0 8.5e-4,-8.1e-4 -10e-4,-0.489306 0,-0.495668 0.29197,-1.391121 0.003,-0.0051 0.34677,-0.66089 0.0259,-0.04926 0,-0.110145 0,-0.165223 0,-0.05507 0,-0.110144 0,-0.165223 0,-0.330445 0,-0.660891 0,-0.991336 0,-0.110144 -0.0281,-0.223584 0,-0.330444 0.0314,-0.119475 0.13251,-0.213616 0.17338,-0.330445 0.0326,-0.09322 0,-0.3871 0,-0.495669 0,-0.38552 0,-0.771038 0,-1.156558 0,-0.07441 0.0264,-0.445386 0,-0.495668 -0.19168,-0.365317 -0.10763,-0.05127 -0.34676,-0.165223 -0.0731,-0.03483 -0.10028,-0.13039 -0.17339,-0.165222 -0.10343,-0.04926 -0.24338,0.04926 -0.34677,0 -0.72158,-0.343808 0.18536,0.01138 -0.17337,-0.330445 -0.63106,-0.601348 -0.12181,0.175657 -0.52016,-0.330445 -0.11563,-0.165223 -0.23118,-0.330446 -0.34676,-0.495668 0,-0.110145 0.0595,-0.235994 0,-0.330446 -0.12614,-0.200362 -0.36697,-0.313209 -0.52015,-0.495668 -0.0807,-0.09616 -0.10684,-0.224845 -0.17339,-0.330445 -0.10723,-0.170275 -0.23955,-0.325392 -0.34676,-0.495668 -0.0664,-0.105604 -0.10173,-0.227979 -0.17338,-0.330444 -0.0453,-0.0648 -0.1281,-0.100414 -0.17339,-0.165223 -0.0717,-0.102465 -0.082,-0.243366 -0.17337,-0.330446 -0.0408,-0.03894 -0.12168,0.02463 -0.17339,0 -0.0461,-0.02194 -0.49714,-0.451799 -0.52015,-0.495668 -0.0259,-0.04926 0.0259,-0.11596 0,-0.165222 -0.0366,-0.06967 -0.1281,-0.100414 -0.17338,-0.165223 -0.0717,-0.102464 -0.082,-0.243366 -0.17339,-0.330445 -0.0409,-0.03894 -0.12168,0.02463 -0.17338,0 -0.0731,-0.03484 -0.10028,-0.130391 -0.17338,-0.165223 -0.0517,-0.02463 -0.12169,0.02463 -0.17338,0 -0.0731,-0.03484 -0.10028,-0.130391 -0.17339,-0.165223 -0.0517,-0.02463 -0.12168,0.02463 -0.17338,0 -0.0731,-0.03483 -0.10028,-0.130391 -0.17338,-0.165222 -0.1108,-0.0528 -0.55398,0.04433 -0.69353,0 -0.12261,-0.03895 -0.2214,-0.135354 -0.34677,-0.165223 -0.23617,-0.05626 -0.83054,0.06663 -1.0403,0 -0.0775,-0.02463 -0.11558,-0.110144 -0.17338,-0.165223 -0.17338,-0.05507 -0.33987,-0.136591 -0.52015,-0.165221 -1.32267,0 0.13678,0.07388 -0.86691,-0.165223 -0.11213,-0.02672 -0.23463,0.02672 -0.34677,0 -0.12537,-0.02987 -0.23118,-0.110144 -0.34676,-0.165223 -0.23118,-0.110144 -0.45597,-0.233423 -0.69353,-0.330445 -1.46607,-0.598744 0.19151,0.08693 -0.86692,-0.165223 -0.25075,-0.05974 -0.44833,-0.252559 -0.69353,-0.330445 -0.0548,-0.01741 -0.11558,0 -0.17338,0 -0.23118,0 -0.46685,0.0432 -0.69353,0 -0.0802,-0.01527 -0.10028,-0.130391 -0.17339,-0.165223 -0.16346,-0.07789 -0.35668,-0.08733 -0.52015,-0.165223 -0.18638,-0.0888 -0.32246,-0.26765 -0.52014,-0.330445 -0.16449,-0.05224 -0.35781,0.05801 -0.52015,0 -1.437501,-0.513691 -0.36645,-0.342948 -1.387066,-0.991336 -0.152067,-0.09661 -0.363431,-0.07562 -0.520149,-0.165222 -0.280343,-0.160289 -0.438238,-0.466269 -0.693531,-0.66089 -0.251914,-0.192047 -0.669469,-0.378661 -0.866914,-0.660891 -0.06069,-0.08676 -0.176392,-0.441549 -0.346765,-0.495668 -0.115585,0 -0.231178,0 -0.346766,0 0,-0.05507 0.05169,-0.140592 0,-0.165223 -0.103391,-0.04926 -0.237109,0.03484 -0.346766,0 -0.131872,-0.04189 -0.512123,-0.653242 -0.520149,-0.660891 -0.204333,-0.194716 -0.465431,-0.326605 -0.693532,-0.495666 -1.067426,-0.791148 -0.736213,-0.536343 -1.733827,-1.487005 -0.231178,-0.220296 -0.489297,-0.417612 -0.693532,-0.66089 -0.130167,-0.155059 -0.199419,-0.355255 -0.346766,-0.495667 -0.04086,-0.03895 -0.132516,0.03894 -0.173383,0 -0.09138,-0.08708 -0.08201,-0.243366 -0.173383,-0.330446 -0.09138,-0.08708 -0.255384,-0.07814 -0.346766,-0.165222 -0.09138,-0.08708 -0.09584,-0.231926 -0.173381,-0.330446 -0.196161,-0.249238 -0.484235,-0.421554 -0.693532,-0.660891 -0.566641,-0.647966 -0.416489,-0.555642 -0.866915,-1.156558 -0.16796,-0.224079 -0.359856,-0.431768 -0.520148,-0.66089 -0.186932,-0.2672 -0.35649,-0.545391 -0.520149,-0.826113 -0.12552,-0.215305 -0.203395,-0.455957 -0.346766,-0.660891 -0.276347,-0.395012 -0.401573,-0.208915 -0.520147,-0.660891 -0.02804,-0.106855 0.05169,-0.231925 0,-0.330444 -0.02585,-0.04926 -0.115585,0 -0.173383,0 -0.05779,-0.05507 -0.147538,-0.09133 -0.173383,-0.165223 -0.03656,-0.104503 0.03655,-0.225949 0,-0.330445 -0.02585,-0.07388 -0.136831,-0.09556 -0.173383,-0.165223 -0.02585,-0.04926 0.01827,-0.112971 0,-0.165223 -0.121373,-0.346968 -0.398782,-0.644367 -0.520149,-0.991336 -0.173383,-0.495668 0.346766,0.330446 0,-0.495668 -0.07739,-0.184369 -0.253575,-0.318059 -0.346766,-0.495668 -0.02584,-0.04926 0.02585,-0.11596 0,-0.165221 -0.03655,-0.06967 -0.13683,-0.09556 -0.173383,-0.165223 -0.04703,-0.08963 0.04744,-0.615682 0,-0.660891 -0.04087,-0.03894 -0.132516,0.03894 -0.173383,0 -0.04086,-0.03894 0.02584,-0.11596 0,-0.165222 -0.03656,-0.06967 -0.13683,-0.09556 -0.173383,-0.165223 -0.02584,-0.04926 0.02584,-0.115961 0,-0.165223 -0.03655,-0.06967 -0.12804,-0.100413 -0.173382,-0.165222 -0.07168,-0.102465 -0.101698,-0.227979 -0.173383,-0.330446 -0.04534,-0.0648 -0.136831,-0.09556 -0.173383,-0.165223 -0.02585,-0.04926 0.04087,-0.126279 0,-0.165222 -0.04086,-0.03894 -0.121688,0.02463 -0.173383,0 -0.07311,-0.03484 -0.10028,-0.130391 -0.173382,-0.165223 -0.05169,-0.02463 -0.121688,0.02463 -0.173383,0 -0.07311,-0.03483 -0.10028,-0.130391 -0.173383,-0.165223 -0.05169,-0.02463 -0.121687,0.02463 -0.173383,0 -0.07311,-0.03483 -0.09584,-0.140592 -0.173383,-0.165222 -0.184239,-0.05852 -0.509292,0.05852 -0.693531,0 -0.122607,-0.03894 -0.224166,-0.126279 -0.346766,-0.165223 -0.05483,-0.01741 -0.121688,0.02463 -0.173383,0 -0.07311,-0.03483 -0.09584,-0.140592 -0.173383,-0.165221 -1.190258,-0.378081 0.807599,0.632628 -0.866913,-0.165223 -0.399111,-0.190164 0.07559,-0.193811 -0.346766,-0.495668 -0.14621,-0.104491 -0.37394,-0.06073 -0.520149,-0.165223 -0.10339,-0.07388 -0.101697,-0.227978 -0.173383,-0.330445 -0.04534,-0.0648 -0.13683,-0.09556 -0.173383,-0.165223 -0.05169,-0.09852 0.08173,-0.252559 0,-0.330445 -0.04087,-0.03894 -0.132516,0.03895 -0.173383,0 -0.04086,-0.03894 0.04087,-0.12628 0,-0.165223 -0.09138,-0.08708 -0.255385,-0.07814 -0.346765,-0.165223 -0.04086,-0.03894 0.02584,-0.11596 0,-0.165222 -0.0463,-0.08824 -0.428868,-0.408684 -0.520149,-0.495669 -0.05779,-0.05507 -0.115584,-0.110144 -0.173383,-0.165221 -0.05779,-0.05507 -0.10028,-0.130391 -0.173383,-0.165223 -0.0627,-0.02987 -0.746319,0 -0.866913,0 -0.05779,0 -0.132517,0.03895 -0.173383,0 -0.04087,-0.03895 0.04086,-0.126279 0,-0.165222 -0.04744,-0.0452 -0.599474,0.04481 -0.693532,0 -0.07311,-0.03484 -0.09408,-0.146334 -0.173383,-0.165223 -0.224275,-0.05343 -0.462354,0 -0.693532,0 -0.05779,0 -0.173383,0.05507 -0.173383,0 0,-0.227077 0.115585,-0.440594 0.173383,-0.660891 z"
     id="path832"
     inkscape:connector-curvature="0" />
  <text
     xml:space="preserve"
     style="font-style:italic;font-variant:normal;font-weight:bold;font-stretch:normal;font-size:97.77522278px;line-height:1.25;font-family:sans-serif;-inkscape-font-specification:'sans-serif, Bold Italic';font-variant-ligatures:normal;font-variant-caps:normal;font-variant-numeric:normal;font-feature-settings:normal;text-align:start;letter-spacing:0px;word-spacing:0px;writing-mode:lr-tb;text-anchor:start;fill:#000000;fill-opacity:1;stroke:none;stroke-width:2.44436407;stroke-opacity:1"
     x="68.853569"
     y="92.923294"
     id="text3093"
     transform="scale(0.73229554,1.3655689)"><tspan
       sodipodi:role="line"
       id="tspan1641"
       x="68.853569"
       y="92.923294"
       style="stroke-width:2.44436407">rs</tspan></text>
</svg>
