<?xml version="1.0" encoding="UTF-8" standalone="no"?>
<!-- Created with Inkscape (http://www.inkscape.org/) -->

<svg
   xmlns:dc="http://purl.org/dc/elements/1.1/"
   xmlns:cc="http://creativecommons.org/ns#"
   xmlns:rdf="http://www.w3.org/1999/02/22-rdf-syntax-ns#"
   xmlns:svg="http://www.w3.org/2000/svg"
   xmlns="http://www.w3.org/2000/svg"
   xmlns:sodipodi="http://sodipodi.sourceforge.net/DTD/sodipodi-0.dtd"
   xmlns:inkscape="http://www.inkscape.org/namespaces/inkscape"
   width="128"
   height="128"
   viewBox="0 0 128 128"
   version="1.1"
   id="SVGRoot"
   inkscape:version="0.92.2 (5c3e80d, 2017-08-06)"
   sodipodi:docname="icon_about.svg">
  <sodipodi:namedview
     id="base"
     pagecolor="#ffffff"
     bordercolor="#666666"
     borderopacity="1.0"
     inkscape:pageopacity="0.0"
     inkscape:pageshadow="2"
     inkscape:zoom="7.5703125"
     inkscape:cx="64"
     inkscape:cy="64"
     inkscape:document-units="px"
     inkscape:current-layer="text45"
     showgrid="false"
     inkscape:window-width="1920"
     inkscape:window-height="1138"
     inkscape:window-x="-8"
     inkscape:window-y="-8"
     inkscape:window-maximized="1"
     inkscape:grid-bbox="true"
     inkscape:snap-grids="false"
     inkscape:snap-to-guides="false">
    <inkscape:grid
       type="xygrid"
       id="grid26" />
  </sodipodi:namedview>
  <defs
     id="defs10" />
  <metadata
     id="metadata13">
    <rdf:RDF>
      <cc:Work
         rdf:about="">
        <dc:format>image/svg+xml</dc:format>
        <dc:type
           rdf:resource="http://purl.org/dc/dcmitype/StillImage" />
        <dc:title></dc:title>
      </cc:Work>
    </rdf:RDF>
  </metadata>
  <g
     id="layer1"
     inkscape:groupmode="layer"
     inkscape:label="Layer 1"
     transform="translate(0,80)">
    <g
       aria-label="i"
       style="font-style:normal;font-variant:normal;font-weight:normal;font-stretch:normal;font-size:21.33333397px;line-height:1.25;font-family:Vijaya;-inkscape-font-specification:Vijaya;letter-spacing:0px;word-spacing:0px;fill:#000000;fill-opacity:1;stroke:none"
       id="text45">
      <g
         aria-label="i"
         transform="matrix(2.5179731,0,0,2.4568422,4.4869531,-72.038224)"
         style="font-style:normal;font-variant:normal;font-weight:normal;font-stretch:normal;font-size:43.32186508px;line-height:1.25;font-family:Vijaya;-inkscape-font-specification:Vijaya;letter-spacing:0px;word-spacing:0px;fill:#040000;fill-opacity:1;stroke:#df0000;stroke-width:3.40423942;stroke-miterlimit:4;stroke-dasharray:none;stroke-opacity:1"
         id="text57"
         inkscape:export-xdpi="96"
         inkscape:export-ydpi="96">
        <path
           style="fill:none;fill-opacity:1;stroke:#030000;stroke-width:3.40423942;stroke-miterlimit:4;stroke-dasharray:none;stroke-opacity:1"
           d="M 30.491751,1.7707247 C 25.911829,1.7706316 21.300128,3.2524619 17.752724,6.0432613 14.205321,8.8340607 11.739677,13.028624 11.739392,18.147471 v 0.002 0.002 c 0.0052,1.395887 0.47709,3.635457 1.176268,6.102221 0.349589,1.233381 0.758468,2.468897 1.224795,3.555206 0.354655,0.826171 0.808347,1.464622 1.300494,2.091067 0.06538,0.2116 0.09437,0.211144 0.06405,0.253522 -0.03761,0.05257 -0.473948,0.418708 -1.116095,1.035707 l -0.03106,0.02948 -0.02912,0.03145 c -2.07696,2.244216 -5.3388755,3.908752 -8.2824047,5.160847 l -4.6041397,1.924017 0.2232191,-0.07468 c 0,0 -0.213926,0.03372 -0.5085516,0.198494 -0.1473128,0.08239 -0.35427534,0.196571 -0.57842904,0.524732 -0.2241537,0.32816 -0.35137964,0.999126 -0.18439851,1.460209 0.33396224,0.922166 0.80673565,0.968155 1.20926595,1.143798 0.4025304,0.175643 0.8918828,0.327722 1.6071788,0.505079 2.8116081,0.697137 5.8406835,1.034447 9.6877157,1.236166 2.054966,0.107753 4.757328,-0.06531 7.236186,-0.361613 2.478858,-0.2963 4.544384,-0.611275 5.904634,-1.22634 1.669505,-0.754899 2.927446,-1.935991 3.802492,-2.912557 0.395543,-0.441432 0.685371,-0.820585 0.91617,-1.128075 3.780607,0.188462 7.088347,-0.683943 9.701303,-2.914523 2.811995,-2.400492 4.789155,-6.147604 6.285077,-11.280754 l 0.0039,-0.01179 0.002,-0.01179 C 48.217749,18.120264 46.455241,12.682707 43.244363,8.6315459 40.033485,4.580385 35.333524,1.7706264 30.491751,1.7707247 Z"
           id="path6574"
           inkscape:connector-curvature="0" />
      </g>
      <text
         xml:space="preserve"
         style="font-style:normal;font-weight:normal;font-size:79.15918732px;line-height:1.25;font-family:sans-serif;letter-spacing:0px;word-spacing:0px;fill:#000000;fill-opacity:1;stroke:none;stroke-width:0.92764664"
         x="61.717777"
         y="1.7714715"
         id="text6610"
         transform="matrix(0.89947949,0.08904069,-0.10898605,1.1009654,0,0)"
         inkscape:export-xdpi="96"
         inkscape:export-ydpi="96"><tspan
           sodipodi:role="line"
           id="tspan6608"
           x="61.717777"
           y="1.7714715"
           style="font-style:italic;font-variant:normal;font-weight:bold;font-stretch:normal;font-family:'Bookman Old Style';-inkscape-font-specification:'Bookman Old Style Bold Italic';stroke-width:0.92764664">i</tspan></text>
    </g>
  </g>
</svg>
